<svg width="33" height="32" viewBox="0 0 33 32" fill="none" xmlns="http://www.w3.org/2000/svg">
<g clip-path="url(#clip0_14157_1728)">
<path d="M19.2508 13.7261C17.8812 13.7261 17.2696 14.4788 16.9274 15.0073V13.9091H14.3481C14.3817 14.6361 14.3481 21.6694 14.3481 21.6694H16.9274V17.3339C16.9274 17.1026 16.9422 16.8699 17.0118 16.7043C17.1987 16.2402 17.6228 15.7601 18.3356 15.7601C19.2688 15.7601 19.642 16.4716 19.642 17.5157V21.6675H22.2212H22.2219V17.2173C22.2206 14.8352 20.9477 13.7261 19.2508 13.7261ZM16.9255 15.0344H16.9093C16.9145 15.0254 16.9222 15.017 16.9255 15.008V15.0344Z" fill="#0084A9"/>
<path d="M10.3396 13.9092H12.9188V21.6695H10.3396V13.9092Z" fill="#0084A9"/>
<path d="M16.335 0C7.51263 0 0.334961 7.17764 0.334961 16C0.334961 24.8217 7.51263 32 16.335 32C25.1568 32 32.3351 24.8217 32.3351 16C32.3351 7.17764 25.1581 0 16.335 0ZM24.8197 23.2369C24.8197 23.9175 24.2552 24.4679 23.5572 24.4679H9.00398C8.30793 24.4679 7.74272 23.9175 7.74272 23.2369V8.5143C7.74272 7.83437 8.30793 7.28333 9.00398 7.28333H23.5572C24.2545 7.28333 24.8197 7.83501 24.8197 8.5143V23.2369Z" fill="#0084A9"/>
<path d="M11.6464 10.168C10.7647 10.168 10.1873 10.7467 10.1873 11.5085C10.1873 12.2529 10.7473 12.849 11.6122 12.849H11.629C12.5287 12.849 13.0888 12.2529 13.0888 11.5085C13.0714 10.7474 12.5293 10.168 11.6464 10.168Z" fill="#0084A9"/>
</g>
<defs>
<clipPath id="clip0_14157_1728">
<rect width="32.0002" height="32" fill="white" transform="translate(0.334961)"/>
</clipPath>
</defs>
</svg>
