<svg width="32" height="32" viewBox="0 0 32 32" fill="none" xmlns="http://www.w3.org/2000/svg">
<path d="M15.9998 0C7.17754 0 0 7.17763 0 16C0 24.8217 7.17754 32 15.9998 32C24.8214 32 31.9996 24.8217 31.9996 16C31.9996 7.17763 24.8227 0 15.9998 0ZM19.9788 16.5633H17.3757V25.8413H13.5185C13.5185 25.8413 13.5185 20.7718 13.5185 16.5633H11.685V13.2841H13.5185V11.1631C13.5185 9.64408 14.2404 7.27044 17.4112 7.27044L20.2694 7.2814V10.4645C20.2694 10.4645 18.5326 10.4645 18.1949 10.4645C17.8572 10.4645 17.377 10.6334 17.377 11.3578V13.2848H20.3158L19.9788 16.5633Z" fill="#0084A9"/>
</svg>
