<svg width="78" height="80" viewBox="0 0 78 80" fill="none" xmlns="http://www.w3.org/2000/svg">
<path d="M75.3281 39.3752H67.5156V35.875C67.5156 31.5811 64.5191 27.967 60.4844 26.9647V2.34375C60.4844 1.04937 59.435 0 58.1406 0H2.67188C1.3775 0 0.328125 1.04937 0.328125 2.34375V66.5625C0.328125 67.8569 1.3775 68.9062 2.67188 68.9062H38.7656V70.8269C38.7656 75.885 42.8872 80 47.9531 80H68.4844C73.5503 80 77.6719 75.885 77.6719 70.8269V41.7189C77.6719 40.4245 76.6225 39.3752 75.3281 39.3752ZM62.8281 35.875V39.3752H53.6094V35.875C53.6094 33.3937 55.677 31.375 58.2188 31.375C60.7605 31.375 62.8281 33.3936 62.8281 35.875ZM5.01562 64.2188V4.6875H55.7969V27.0056C51.8414 28.0616 48.9219 31.6367 48.9219 35.8748V39.375H41.1094C39.815 39.375 38.7656 40.4244 38.7656 41.7188V64.2188H5.01562ZM72.9844 70.8269C72.9844 73.3003 70.9656 75.3125 68.4844 75.3125H47.9531C45.4719 75.3125 43.4531 73.3003 43.4531 70.8269V44.0627H48.9219V50.2344C48.9219 51.5288 49.9712 52.5781 51.2656 52.5781C52.56 52.5781 53.6094 51.5288 53.6094 50.2344V44.0627H62.8281V50.2344C62.8281 51.5288 63.8775 52.5781 65.1719 52.5781C66.4662 52.5781 67.5156 51.5288 67.5156 50.2344V44.0627H72.9844V70.8269Z" fill="#202D42"/>
</svg>
